<?xml version="1.0" standalone="no"?>
<!DOCTYPE svg PUBLIC "-//W3C//DTD SVG 20010904//EN"
 "http://www.w3.org/TR/2001/REC-SVG-20010904/DTD/svg10.dtd">
<svg version="1.0" xmlns="http://www.w3.org/2000/svg"
 width="500.000000pt" height="500.000000pt" viewBox="0 0 500.000000 500.000000"
 preserveAspectRatio="xMidYMid meet">

<g transform="translate(0.000000,500.000000) scale(0.100000,-0.100000)"
fill="#000000" stroke="none">
<path d="M1145 4092 c-74 -47 -85 -90 -76 -287 3 -77 4 -660 1 -1295 -5 -1140
-5 -1156 15 -1195 25 -49 85 -83 141 -79 22 2 165 7 319 13 154 5 334 13 400
16 195 10 503 20 597 20 47 0 84 3 81 8 -2 4 1 7 6 7 6 0 11 -4 11 -8 0 -5 38
-10 85 -11 47 -1 115 -3 152 -5 38 -3 178 -7 313 -11 135 -3 332 -11 437 -16
190 -10 194 -10 232 12 56 31 75 79 67 166 -9 93 -7 2419 2 2463 11 50 -1 126
-25 158 -29 40 -70 57 -133 55 -525 -16 -766 -25 -865 -33 -156 -12 -622 -12
-750 1 -55 5 -266 14 -470 19 -203 6 -401 12 -440 15 -58 5 -75 3 -100 -13z
m1320 -52 c3 -5 24 -10 46 -10 21 0 39 5 39 10 0 13 87 13 92 0 2 -6 163 -12
413 -15 731 -10 748 -12 772 -86 9 -27 12 -351 14 -1270 2 -1359 5 -1296 -58
-1320 -43 -16 -70 -17 -543 -26 -536 -9 -809 -9 -1415 0 -494 8 -572 12 -609
28 -53 25 -51 -30 -54 1302 -2 848 1 1251 8 1278 18 67 35 72 264 80 158 6
801 18 949 19 16 0 26 4 22 10 -4 6 6 10 24 10 16 0 33 -4 36 -10z m63 -2747
c-10 -2 -26 -2 -35 0 -10 3 -2 5 17 5 19 0 27 -2 18 -5z"/>
<path d="M1230 2670 l0 -1270 1270 0 1270 0 0 1270 0 1270 -1270 0 -1270 0 0
-1270z m2249 1204 l166 -7 27 -30 28 -29 -3 -1134 -2 -1135 -33 -29 c-28 -24
-30 -29 -15 -33 10 -3 -500 -5 -1133 -6 l-1151 -1 -20 23 c-11 12 -26 32 -32
44 -15 29 -16 2229 -1 2268 20 53 36 60 154 65 174 9 1831 12 2015 4z"/>
<path d="M2444 3571 c-67 -29 -84 -118 -35 -173 25 -28 36 -33 76 -33 40 0 51
5 76 33 39 44 40 99 2 142 -30 33 -82 46 -119 31z"/>
<path d="M2145 3438 c-84 -46 -135 -162 -135 -309 0 -141 56 -297 137 -383
l38 -40 13 50 c68 260 228 433 415 451 83 7 150 -9 217 -53 61 -40 64 -41 49
-13 -25 47 -96 112 -154 141 -144 73 -378 37 -486 -75 l-39 -39 0 67 c0 103
35 158 106 167 29 4 29 4 -16 26 -49 23 -113 28 -145 10z"/>
<path d="M2440 1843 c-32 -6 -50 -21 -50 -42 0 -34 19 -44 97 -55 58 -8 78
-15 78 -26 0 -23 -111 -27 -135 -5 -10 9 -27 15 -37 13 -16 -3 -15 -7 9 -31
23 -23 35 -27 87 -27 84 0 111 12 111 49 0 35 -22 51 -73 51 -54 0 -97 11 -97
25 0 28 82 34 118 9 12 -8 30 -14 38 -12 14 3 14 6 -2 25 -20 23 -93 37 -144
26z"/>
<path d="M2763 1839 c-38 -11 -52 -44 -30 -67 9 -8 49 -20 89 -26 53 -8 73
-15 73 -26 0 -22 -117 -27 -135 -5 -16 19 -40 20 -40 1 0 -29 42 -46 112 -46
55 0 72 4 88 20 11 11 20 26 20 34 0 23 -41 46 -81 46 -57 0 -99 11 -99 26 0
8 11 17 26 20 32 8 98 -2 102 -16 4 -12 42 -14 42 -2 0 35 -105 60 -167 41z"/>
<path d="M2060 1825 c0 -11 12 -15 45 -15 l45 0 0 -70 c0 -63 2 -70 20 -70 18
0 20 7 20 70 l0 70 40 0 c29 0 40 4 40 15 0 12 -18 15 -105 15 -87 0 -105 -3
-105 -15z"/>
</g>
</svg>
